<?xml version="1.0" encoding="UTF-8" standalone="no"?>
<svg
   xmlns:dc="http://purl.org/dc/elements/1.1/"
   xmlns:cc="http://creativecommons.org/ns#"
   xmlns:rdf="http://www.w3.org/1999/02/22-rdf-syntax-ns#"
   xmlns:svg="http://www.w3.org/2000/svg"
   xmlns="http://www.w3.org/2000/svg"
   viewBox="0 0 196 108"
   height="108"
   width="196"
   xml:space="preserve"
   id="svg2"
   version="1.1"><metadata
     id="metadata8"><rdf:RDF><cc:Work
         rdf:about=""><dc:format>image/svg+xml</dc:format><dc:type
           rdf:resource="http://purl.org/dc/dcmitype/StillImage" /></cc:Work></rdf:RDF></metadata><defs
     id="defs6" /><g
     transform="matrix(1.3333333,0,0,-1.3333333,0,108)"
     id="g10"><g
       transform="scale(0.1)"
       id="g12"><path
         id="path14"
         style="fill:#4a95bc;fill-opacity:1;fill-rule:nonzero;stroke:none"
         d="m 590.152,809.578 c -8.871,-2.777 -17.336,-6.898 -24.441,-12.578 -11.613,-9.285 -19.586,-22.859 -19.586,-41.699 0,-36.457 37.691,-55.262 75.004,-73.863 38.418,-19.157 76.492,-38.149 76.492,-76.543 0,-14.231 -7.433,-27.172 -19.289,-36.497 -4.949,-3.898 -10.695,-7.171 -16.988,-9.652 15.176,2.899 29.222,8.242 40.355,16.168 14.981,10.656 24.703,26.09 24.703,46.609 0,42.227 -46.898,65.278 -89.398,86.168 -36.953,18.157 -70.774,34.786 -70.774,62.071 0,14.644 6.079,25.879 15.184,33.758 2.676,2.316 5.617,4.332 8.738,6.058 z m 0.743,-244.805 c -5.692,3.375 -11.122,7.528 -16.25,12.477 -12.489,12.055 -23.215,28.871 -31.774,50.809 l 3.106,-54.153 c 1.867,2.735 4.621,4.664 8.757,4.664 4.621,0 11.036,-2.906 19.352,-6.648 4.918,-2.219 10.551,-4.762 16.809,-7.149 z m 74.199,240.938 c 6.246,-3.367 12.14,-7.395 17.57,-11.977 12.227,-10.328 22.106,-23.527 28.313,-38.394 l -1.219,39.031 c -3.012,-3.113 -7.313,-4.48 -13.598,-1.586 l -1.859,0.879 c -5.766,2.707 -16.367,7.676 -29.207,12.047" /><path
         id="path16"
         style="fill:#4a95bc;fill-opacity:1;fill-rule:nonzero;stroke:none"
         d="m 740.168,560.473 h 41.18 V 806.91 h -41.172 c 1.875,-1.515 3.594,-3.328 5.101,-5.406 4.032,-5.566 6.575,-13.027 6.575,-21.633 V 587.512 c 0,-8.606 -2.543,-16.059 -6.575,-21.625 -1.507,-2.078 -3.226,-3.899 -5.109,-5.414 z m 106.969,4.207 c 26.832,5.203 48.519,15.05 65.078,28.5 27.039,21.957 40.512,53.675 40.512,90.515 0,36.844 -13.473,68.555 -40.512,90.508 -16.559,13.449 -38.238,23.289 -65.078,28.504 16.89,-5.824 30.504,-14.867 41.23,-26.055 23.492,-24.504 33.051,-59.214 33.051,-92.957 0,-33.742 -9.566,-68.457 -33.051,-92.957 -10.734,-11.195 -24.34,-20.234 -41.23,-26.058" /><path
         id="path18"
         style="fill:#4a95bc;fill-opacity:1;fill-rule:nonzero;stroke:none"
         d="m 659.055,409.578 c -2.41,0.352 -5.684,1.184 -8.051,1.711 -14.176,3.098 -19.41,9.469 -30.297,17.949 -4.105,3.227 -7.477,6.219 -11.355,9.657 l -0.129,0.14 -0.012,-0.004 -0.481,0.485 v -0.004 l -1.804,1.777 0.054,-0.043 -2.312,2.281 -0.008,-0.007 c -0.183,0.226 -0.648,0.664 -0.867,0.859 l 0.004,-0.004 -1.129,1.117 0.051,-0.039 v -0.004 l -1.875,1.836 0.035,-0.031 -5.969,5.816 0.02,-0.019 -0.02,0.019 0.031,-0.023 c -7.578,7.531 -15.234,15.387 -21.398,24.125 -2.742,3.871 -5.352,7.777 -8.055,11.66 1.848,-2.113 3.805,-4.277 5.797,-6.25 l -0.012,0.004 0.188,-0.18 -0.016,0.008 1.075,-1.055 -0.11,0.106 1.922,-1.883 -0.109,0.106 0.679,-0.668 -0.105,0.105 0.172,-0.172 -0.051,0.047 0.172,-0.164 -0.086,0.082 0.023,-0.016 h -0.004 c 3.793,-3.66 7.754,-7.214 11.497,-10.914 -0.04,0.086 0.117,-0.109 0.14,-0.133 l -0.074,0.075 2.367,-2.332 -0.109,0.097 0.617,-0.601 -0.102,0.101 0.383,-0.375 -0.008,0.008 c 3.508,-3.176 6.719,-7.203 10.391,-10.246 5.754,-4.883 11.996,-9.199 18.16,-13.562 l -0.027,0.023 c 0.808,-0.645 2.004,-1.313 2.695,-2.027 l -0.015,0.011 0.207,-0.16 h -0.004 l 0.359,-0.269 -0.004,0.007 0.016,-0.015 -0.004,0.004 3.012,-2.317 c 0.113,-0.039 -4.278,4.133 -5.676,5.438 l 0.043,-0.039 c -4.824,4.707 -10.481,8.82 -15.571,13.285 -5.484,4.769 -10.382,10.074 -15.64,15.086 -4.477,4.258 -8.981,8.465 -13.363,12.824 4.371,-4.129 8.32,-7.719 13.167,-11.336 l -0.035,0.02 0.032,-0.032 -0.039,0.04 c 0.812,-0.618 1.796,-1.266 2.542,-1.911 v 0.008 l 0.055,-0.047 -0.008,0.004 17.121,-13.828 0.067,-0.047 h -0.008 0.008 l -0.051,0.024 c 5.305,-4.246 11,-7.95 16.328,-12.243 6.606,-5.25 11.633,-12.39 18.051,-17.964 2.332,-2.028 4.762,-4.055 7.043,-6.125 3.531,-3.254 6.996,-6.778 10.613,-9.883 h -0.011 l 0.011,-0.004 z m -97.914,85.945 -1.301,2.231 z m 13.011,63.946 c 7.493,0.508 13.215,0.34 20.598,-0.895 8.316,-1.297 16.301,-3.129 24.43,-5.304 l -0.032,0.003 c 8.54,-2.121 16.954,-5.371 25.422,-7.867 3.727,-1.117 7.5,-2.238 11.168,-3.539 h -0.011 l 0.011,-0.004 c -4.492,-0.543 -8.984,-1.109 -13.468,-1.718 l -0.106,-0.008 h 0.024 c -6.165,-0.992 -12.778,-1.324 -19.02,-1.106 -11.637,0.41 -23.023,0.391 -34.613,1.543 -3.535,0.352 -7.086,0.883 -10.61,1.348 l 0.051,-0.008 h -0.004 0.004 c -3.41,0.465 -6.906,0.922 -10.293,1.527 -9.039,1.688 -18.23,4.161 -27.148,6.579 h 0.011 c -3.316,0.933 -6.609,1.855 -9.921,2.847 17.863,-3.48 35.824,-4.297 53.804,-6.679 6.297,-1.036 12.41,-2.461 18.621,-3.954 0.348,-0.004 -13.879,4.598 -20.23,5.887 -12.235,2.477 -24.18,3.602 -36.551,5.102 l 0.188,-0.024 c -5.817,0.86 -11.645,1.559 -17.43,2.66 15.32,0.141 29.953,2.489 45.105,3.61 z m 30.5,-42.606 c 5.996,1.184 11.934,2.418 17.856,3.918 32.82,8.489 49.125,9.34 82.16,4.938 7.52,-1.063 14.973,-2.766 22.594,-2.895 l 0.035,-0.008 c -4.383,-1.062 -8.93,-2.273 -13.195,-3.734 -15.118,-5.113 -31.02,-9.121 -46.954,-10.379 -11.468,-0.867 -22.609,-1.363 -34.152,-1.359 l -0.047,0.008 0.098,0.003 c -6.469,-0.039 -12.77,0.489 -19.16,1.438 -7.821,1.148 -15.805,1.887 -23.508,3.496 l 6.336,0.051 h -0.133 l 3.063,-0.012 h -0.141 c 10.75,-0.219 21.453,0.106 32.156,1.199 16.719,1.735 33.485,2.821 50.231,4.262 6.402,0.551 19.558,1.27 19.539,1.27 -7.992,0.343 -15.848,1.195 -23.86,1.207 -14.843,0.05 -29.05,-0.86 -43.754,-2.77 l 0.219,0.02 c -9.289,-1.196 -18.43,-2.391 -27.805,-2.953 -3.222,-0.192 -6.453,-0.157 -9.679,-0.157 l 0.144,-0.004 -4.281,0.008 z m -18.371,-3.664 v 0.004 z m 86.504,-24 c 4.688,1.492 9.574,3.551 14.231,5.18 9.144,3.266 18.312,5.238 27.828,7.121 13.07,2.621 35.59,3.188 48.336,0.559 6.933,-1.418 14.336,-2.43 21.027,-4.645 5.922,-1.93 11.527,-4.457 17.586,-6.332 7.297,-2.258 15.641,-4.996 23.191,-6.312 l -0.011,-0.004 0.011,-0.004 -2.679,-0.723 0.004,0.004 c -5.606,-1.543 -10.825,-2.5 -16.5,-3.578 l 0.046,0.019 c -8.539,-1.16 -17.222,-1.207 -25.812,-2.089 -7.199,-0.805 -13.992,-0.731 -21.16,-1.055 -3.914,-0.102 -7.856,-0.258 -11.77,-0.266 l 0.008,0.008 v 0.004 c -8.129,0.137 -15.973,0.504 -24.055,1.535 v 0 l -0.222,0.02 0.031,0.004 c -10.629,1.488 -20.953,4.378 -31.512,5.753 -3.64,0.465 -7.48,0.528 -11.172,0.704 7.536,0.339 14.864,1.027 22.34,1.984 l -0.25,-0.031 1.668,0.222 -0.039,-0.007 0.086,0.011 2.758,0.367 -0.242,-0.035 c 9.64,1.184 19.66,2.004 29.383,2.035 6.894,-0.074 13.722,-0.722 20.609,-0.867 5.32,-0.105 10.32,-0.136 15.613,-0.797 5.418,-0.679 10.231,-1.324 15.735,-1.367 0.003,0 -4.235,0.809 -6.172,1.266 l 0.066,-0.024 c -5.953,1.661 -11.715,3.711 -17.891,4.438 -15.769,1.828 -31.105,1.578 -46.898,0.223 -8.609,-0.747 -16.953,-2.219 -25.488,-3.399 l 0.039,0.004 c -9.102,-1.051 -18.266,-1.48 -27.289,-2.949 l -3.406,0.359 c 3.976,0.781 8.14,1.43 11.972,2.664 z m 143.211,26.59 c 2.094,6.305 3.512,12.602 5.617,18.883 2.426,7.25 3.981,14.074 5.914,21.402 2.973,10.762 5.442,15.535 10.957,25.071 l -0.05,-0.071 0.089,0.145 -0.011,-0.035 1.172,2.062 -0.028,-0.066 0.442,0.777 c 0.609,-0.629 3.504,-15.707 3.769,-17.644 l -0.015,0.066 0.007,-0.07 -0.015,0.113 c -0.012,-0.707 0.219,-1.828 0.258,-2.633 0.437,-8.434 -0.266,-18.805 -5.145,-26.051 -5.867,-8.925 -12.746,-17.586 -20.578,-24.847 l 1.758,3.015 -0.102,-0.183 c 5.184,8.902 8.375,13.015 9.309,23.644 l -0.61,-2.394 0.008,0.023 c -0.91,-3.101 -1.894,-5.215 -3.484,-8.004 l 0.058,0.102 c -1.8,-2.84 -3.808,-5.41 -5.699,-8.18 -1.426,-2.082 -2.746,-4.226 -4.043,-6.383 z m 34.414,4.57 c 2.551,1.942 5.004,4.102 7.574,6.012 11.996,9.086 22.618,11.582 37.7,12.918 6.328,0.707 12.492,0.949 18.82,1.313 9.465,0.66 17.961,-0.579 27.301,-0.84 l -0.012,-0.008 h 0.012 c -7.055,-3.547 -14.606,-6.922 -21.887,-9.984 -2.188,-0.875 -4.332,-1.543 -6.602,-2.2 v 0 0 l 0.043,0.016 c -10.046,-2.664 -22.332,-5.508 -32.668,-5.742 -5.144,-0.153 -10.433,-0.414 -15.535,-1.043 l 2.41,0.722 -0.148,-0.039 c 4.137,1.118 8.242,2.356 12.379,3.485 l -0.055,-0.016 c 6.41,1.746 24.219,7.34 24.211,7.336 -11.289,-1.297 -19.961,-1.961 -31.09,-5.422 -7.324,-2.262 -14.324,-4.398 -21.453,-7.242 -0.308,-0.125 -4.289,-1.695 -4.187,-1.41 1.215,0.758 2.218,1.406 3.187,2.144 z m 57.356,33.719 c 0.23,1.09 4.136,3.418 5.035,4.238 5.117,4.864 9.453,10.164 13.969,15.555 4.738,5.766 13.347,14.152 19.773,16.934 6.676,2.769 13.777,4.207 20.934,4.918 2.207,0.211 4.437,0.41 6.64,0.675 l -0.008,-0.011 h 0.012 c -2.476,-2.399 -4.758,-5.535 -7.086,-8.11 -12.148,-13.433 -16.281,-17.425 -32.648,-24.972 -6.996,-3.293 -13.696,-6.981 -20.809,-10.082 2.137,1.246 4.41,2.468 6.395,3.941 4.855,3.598 9.566,7.426 14.48,10.938 6.008,4.281 9.168,6.109 13.738,11.707 l 2.418,2.921 -1.812,-1.414 0.023,0.016 c -7.109,-5.672 -15.043,-9.828 -22.109,-15.387 -2.871,-2.175 -5.688,-4.371 -8.516,-6.601 -3.547,-2.594 -7.246,-4.598 -10.894,-6.965 l 0.715,0.578 c -0.184,0.25 -0.321,0.848 -0.25,1.121 z m -57.957,-53.519 c 8.921,-2.192 18.308,-4.407 25.8,-10.043 l -0.074,0.05 c 12.352,-9.671 13.063,-12.957 19.879,-27.671 1.445,-3.118 3.012,-6.18 4.125,-9.434 h -0.008 c -2.488,2.234 -5.152,4.269 -7.801,6.316 -8.917,6.848 -17.707,14.09 -26.328,21.305 -6.293,5.313 -12.254,9.621 -19.246,13.902 -2.093,1.36 -4.25,2.868 -6.418,4.114 l -0.117,0.086 0.012,-0.008 -0.785,0.437 c 8.84,-1.859 13.84,-5.008 21.191,-10.183 l -0.129,0.093 c 3.899,-3 7.516,-5.386 11.75,-7.953 l -4.43,4.246 0.059,-0.058 -5.109,5.148 c -4.59,4.414 -12.805,9.371 -19.164,11.192 z m -91.653,6.816 c 4.61,1.68 8.102,4.945 11.758,8.105 3.082,2.657 9.664,8.102 9.59,8.024 l -2.125,-1.25 0.016,0.016 -1.278,-0.766 v 0 c -3.242,-1.906 -6.453,-4.102 -9.476,-6.344 -1.825,-1.355 -8.578,-6.738 -10.684,-6.625 -0.465,0.031 -0.812,-0.383 -0.754,-0.836 -2.074,0.227 -3.914,0.364 -5.988,0.457 1.367,0.617 3.008,1.571 4.312,2.344 l -0.019,-0.016 1.055,0.625 -0.032,-0.027 0.035,0.027 -0.035,-0.027 c 5.321,3.231 10.028,6.969 15.192,10.348 5.918,3.898 9.332,5.937 13.675,11.23 2.465,2.992 5.168,5.766 7.61,8.766 0.094,0.117 7.933,11.008 8.066,11.074 -1.574,-5.875 -3.32,-10.598 -6.215,-15.891 l 0.008,0.004 -0.066,-0.113 0.012,0.031 -0.223,-0.394 0.023,0.054 c -0.097,-0.097 -0.324,-0.589 -0.437,-0.757 -2.215,-3.871 -5.356,-7.211 -8.067,-10.766 -2.144,-2.695 -7.39,-6.516 -10.07,-8.773 -3.664,-3.133 -7.336,-6.036 -10.82,-9.407 -1.684,0.34 -3.367,0.641 -5.063,0.887 z m 9.723,-32.797 c 10.129,-3.601 19.394,-8.902 28.559,-14.43 5.707,-3.429 11.742,-5.996 17.351,-9.703 5.227,-3.425 10.324,-7.285 15.777,-10.293 5.719,-3.152 11.579,-5.847 17.184,-9.218 l 4.332,-2.614 h -0.012 l 0.012,-0.007 c -4.207,0.773 -9.238,1.074 -13.25,2.261 l 0.023,-0.008 -0.023,0.008 0.035,-0.008 c -6.222,1.622 -12.41,3.832 -18.551,5.766 -12.804,3.957 -17.894,7.387 -29.546,15.313 -4.622,3.113 -9.168,6.074 -13.293,9.851 -4.082,3.672 -7.469,7.082 -12.114,10.149 9.371,-4.223 16.965,-10.352 25.817,-15.454 l -0.145,0.082 0.629,-0.363 -0.012,0.008 2,-1.156 -0.148,0.086 c 3.976,-2.317 7.363,-4.528 10.992,-7.309 -0.379,0.281 9.914,-7.281 9.465,-6.82 -2.383,2.097 -4.731,4.254 -6.984,6.484 l 0.015,-0.019 -0.64,0.636 0.058,-0.066 -0.25,0.25 0.004,-0.008 -0.387,0.383 c 0.207,-0.137 -0.16,0.184 -0.054,0.051 -7.633,7.586 -15.614,11.351 -24.762,16.957 -6.297,3.828 -9.977,5.691 -16.875,8.097 -0.852,0.309 -2.16,0.715 -2.926,1.137 1.922,0.059 5.973,0.531 7.719,-0.043 z m -108.195,-6.879 c 10.722,-2.426 21.379,-4.738 32.175,-6.871 6.082,-1.195 11.934,-2.914 17.981,-4.308 5.32,-1.227 8.773,-2.075 13.703,-4.047 l -0.047,0.015 c 5.832,-2.48 11.738,-4.64 17.539,-7.086 8.262,-3.406 13.184,-10.074 21.008,-14.379 4.246,-2.382 9.02,-4.347 13.473,-6.347 h -0.02 l 0.016,-0.008 c -5.66,0.547 -11.16,1.102 -16.782,1.949 -9.906,1.508 -19.402,0.336 -29.332,2.77 -8.867,2.203 -17.312,4.711 -25.808,8.191 -8.453,3.418 -16.887,6.235 -24.43,11.445 -7.914,5.067 -16.449,8.625 -24.547,13.243 -3.621,2.093 -7.273,5.23 -10.773,7.582 2.461,-0.977 4.883,-2.032 7.328,-3.051 l -0.086,0.035 c 6.543,-2.824 12.738,-6.219 19.445,-8.91 7.922,-3.149 15.657,-5.664 23.657,-8.5 7.871,-2.75 15.683,-6.012 23.644,-8.438 5.192,-1.593 21.363,-6.773 21.356,-6.765 -7.118,3.074 -14.168,6.246 -21.332,9.226 l 0.14,-0.058 c -5.906,2.687 -11.945,5.367 -17.937,7.855 l 0.008,-0.004 -0.219,0.094 0.105,-0.043 -0.176,0.074 0.024,-0.011 c -8.027,3.339 -16.957,5.625 -25.156,8.699 -7.321,2.769 -13.797,5.816 -20.879,9.117 1.984,-0.555 4.015,-1.035 5.922,-1.469 z m 8.968,-62.16 c 0.282,0.805 -0.168,1.703 -0.972,1.984 -4.492,1.368 -13.227,10.961 -17.668,14.786 -3.719,3.199 -7.149,6.148 -10.688,9.527 -5.937,6.207 -10.375,11.418 -17.199,16.473 -3.242,2.359 -6.598,4.632 -9.785,7.031 0,-0.004 -0.274,0.187 -0.055,0.043 l -2.289,1.738 0.035,-0.031 -1.242,0.945 c 1.188,-0.906 -10.246,8.445 -13.871,11.352 -4.934,3.949 -9.547,7.277 -14.074,11.718 l -0.078,0.071 h 0.007 l -0.015,0.012 v 0 l -1.492,1.484 c 0.265,-0.309 0.019,-0.02 -0.125,0.125 l 0.148,-0.152 -1.434,1.425 0.149,-0.152 c -2.063,1.91 -4.063,4.172 -5.918,6.293 -6.027,6.836 -12.434,13.672 -18.922,20.094 -0.008,-0.446 -2.695,3.289 -2.922,3.64 12.321,-6.132 26.238,-11.41 39.301,-15.675 1.918,-1.258 3.781,-2.512 5.746,-3.704 5.18,-3.078 10.645,-5.519 15.879,-8.515 -0.094,0.004 -0.938,0.008 -0.906,-0.039 3.168,-3.918 5.679,-4.93 10.363,-6.664 6.879,-5.211 14.875,-7.946 21.801,-12.77 4.215,-2.894 7.535,-5.906 12.094,-8.316 7.418,-3.973 15.156,-7.301 22.222,-11.871 4.961,-3.192 8.594,-5.411 14.094,-7.676 14.105,-5.805 29.066,-11.371 44.309,-12.985 7.503,-0.839 15.082,0.157 22.66,-0.57 4.269,-0.383 8.453,-0.887 12.75,-1.164 2.847,-0.18 5.586,-0.355 8.394,-0.867 1.176,-0.5 5.641,-2.098 6.778,-1.133 0.793,0.656 -0.664,0.934 -1.032,0.984 -2.769,0.043 -6.101,1.602 -8.519,2.864 -7.598,3.953 -13.871,6.609 -20.395,12.203 -1.613,1.41 -3.187,2.867 -4.808,4.258 -6.207,5.328 -13.875,7.445 -21.274,10.578 -2.902,1.238 -5.754,2.644 -8.742,3.687 -5.16,1.801 -10.332,2.844 -15.59,4.258 l -5.394,1.61 c -5.547,1.648 -11.356,2.613 -17.004,3.867 -6.235,1.394 -12.524,3.129 -18.766,4.644 -10.398,2.524 -19.887,6.293 -30.133,9.192 l 0.059,-0.02 -0.445,0.121 0.035,-0.008 c -4.621,1.262 -9.285,2.258 -13.824,3.789 -6.528,4.809 -12.415,7.161 -19.379,10.868 4.914,-1.434 9.73,-2.782 14.617,-4.364 4.258,-1.394 8.683,-2.285 13.074,-3.16 4.383,-0.871 8.777,-1.683 13.223,-2.23 4.789,-0.582 9.609,-1.059 14.39,-1.676 0.328,-1.231 1.891,-0.594 2.805,-0.414 13.672,-2.02 27.336,-4.055 41.191,-4.098 h -0.265 l 2.476,-0.004 c 9,-1.89 17.133,-3.66 26.289,-4.277 8.149,-0.52 15.997,-0.621 24.137,-0.305 8.711,-4.218 12.848,-7.222 19.875,-13.804 6.77,-6.403 14.856,-11.461 22.688,-16.438 8.386,-5.344 13.515,-7.621 23.05,-10.312 8.422,-2.399 16.309,-5.215 24.946,-6.563 l 5.136,-0.742 h -0.015 l 1.961,-0.266 -0.145,0.02 c 1.324,-0.184 5.524,-1.18 5.895,0.672 0.281,1.39 -3.489,3.429 -4.41,4.07 -5.875,4.008 -11.235,6.961 -17.45,10.434 -4.468,2.671 -8.562,5.32 -12.843,8.324 -6.188,4.316 -11.008,7.172 -17.711,10.66 -5.399,2.797 -10.586,6.145 -15.875,9.18 h 0.008 c -3.586,2.058 -7.782,4.058 -11.583,5.711 4.547,0.328 8.989,0.761 13.555,0.984 8.379,0.391 15.563,0.625 23.871,2.309 5.985,1.203 11.789,2.875 17.793,3.996 1.211,0.222 5.024,0.746 6.086,1.172 1.426,0.574 1.789,2.293 0.649,3.335 -0.731,0.653 -4.625,0.68 -5.903,0.856 -7.472,1.047 -14.367,3.34 -21.566,5.437 -4.399,1.282 -8.797,2.551 -13.125,4.055 4.148,1.586 8.281,2.973 12.492,4.41 1.078,-0.633 1.965,-0.054 2.551,0.867 2.547,0.532 4.133,1 6.707,0.665 1.84,-0.707 5.176,-0.903 7.262,-1.434 h -0.012 l 0.734,-0.203 -0.062,0.019 0.16,-0.047 -0.024,0.008 0.02,-0.004 h -0.012 c 1.34,-0.379 2.614,-0.789 3.922,-1.261 v 0.004 c 4.285,-1.805 7.766,-4.114 11.563,-6.77 4.281,-2.977 8.515,-5.672 12.691,-8.824 l -0.168,0.129 c 5.563,-4.336 10.77,-9.035 16.242,-13.489 6.035,-4.921 12.211,-9.765 18.364,-14.546 3.097,-2.395 5.949,-4.766 8.82,-7.418 1.152,-1.055 3.765,-4.414 5.344,-2.43 1.925,2.367 -4.184,14.652 -5.02,16.367 -6.707,13.805 -8.559,19.828 -20.73,28.754 -1.008,0.75 -2.094,1.531 -3.164,2.195 l 0.082,-0.043 c -4.5,2.602 -9.161,4.661 -14.196,6.028 l 0.172,-0.039 -2.746,0.746 0.023,-0.008 c -5.972,1.676 -12.894,2.937 -18.972,4.004 -5.578,0.984 -10.832,1.078 -16.5,1.285 6.941,2.445 13.941,4.863 20.801,7.523 2.414,0.727 4.773,1.438 7.164,2.227 8.109,1.266 16.152,2.133 24.351,2.609 5.262,0.289 10.434,0.137 15.66,1.016 10.477,1.754 21.586,3.977 31.399,8.148 h -0.004 c 8.285,3.504 16.309,7.872 24.512,11.543 0.793,0.371 1.984,0.735 1.754,1.868 -0.196,0.964 -0.993,0.996 -1.778,0.921 l 0.016,0.004 -0.039,-0.007 0.054,0.007 c -0.675,-0.086 -1.351,-0.113 -2.035,-0.113 -8.496,0.074 -16.836,1.887 -25.398,1.93 -8.008,0.004 -16.168,-0.176 -24.152,-0.828 6.148,2.058 12.148,3.957 18.132,6.488 l -0.023,-0.016 0.488,0.211 h -0.012 l 0.379,0.156 -0.015,-0.007 c 6.73,2.882 13,6.539 19.547,9.699 16.511,7.91 20.574,10.555 33.519,24.953 3.402,3.773 6.852,8.402 10.789,11.605 1.539,1.161 1.731,3.2 -0.222,3.172 -11.942,-0.132 -30.18,-1.363 -39.54,-8.55 -6.109,-4.704 -10.734,-8.805 -15.699,-14.653 -5.039,-5.976 -9.875,-11.867 -15.707,-17.109 -4.59,-4.121 -8.594,-7.985 -13.492,-11.824 l 0.059,0.039 -1.621,-1.282 c -2.168,-0.664 -3.899,-1.644 -4.985,-3.71 -14.066,-1.809 -24.34,-6.383 -34.851,-15.887 -3.207,-2.891 -6.528,-6.09 -10.184,-8.406 -0.719,-0.383 -1.516,-0.411 -1.566,-1.493 -7.903,-2.672 -15.661,-5.398 -23.454,-8.382 7.899,6.027 14.157,11.886 20.106,19.89 l -0.098,-0.129 0.575,0.746 -0.055,-0.058 0.109,0.144 v -0.004 c 5.981,8.075 8.625,11.887 10.02,21.696 l -0.028,-0.246 c 0.879,7.695 1.121,13.367 -0.359,21.156 -0.262,1.371 -3.805,17.367 -5.004,18.301 -2.457,1.929 -4.566,-3.211 -5.418,-4.786 l 0.02,0.04 -4.024,-6.879 0.012,0.015 c -2.563,-4.355 -4.676,-8.273 -6.449,-12.992 -3.418,-9.129 -4.875,-18.539 -7.723,-27.836 -2.426,-7.902 -4.18,-15.871 -6.824,-23.691 -1.442,-4.285 -2.262,-5.387 -4.938,-8.703 -0.211,0.007 -0.339,-0.121 -0.343,-0.344 l -14.961,-4.949 c -7.789,3.011 -14.121,4.07 -22.192,5.668 3.551,3.293 7.399,6.531 11.078,9.699 2.176,1.879 4.981,3.933 6.723,6.172 l 1.805,2.383 c 0.113,0 3.597,4.437 3.965,4.89 4.484,5.578 12.695,22.465 11.527,30.02 -0.231,1.507 -1.18,4.277 -3.277,3.437 -2.293,-0.922 -1.368,-2.969 -1.286,-4.683 -3.628,-1.954 -6.5,-6.704 -8.984,-9.977 -3.277,-4.336 -7.039,-7.961 -10.418,-12.176 -4.18,-5.133 -6.652,-6.609 -12.273,-10.398 -6.614,-4.434 -12.215,-9.176 -19.282,-12.985 -2.156,-1.14 -4.347,-2.23 -6.519,-3.332 -9.043,0.153 -18.438,0.071 -27.313,-1.75 -4.226,-0.863 -8.254,-2.019 -12.414,-3.078 l 0.301,0.078 -0.375,-0.105 0.012,0.004 c -10.008,-2.832 -18.715,-6.473 -28.348,-10.211 -6.84,-2.656 -14.117,-3.77 -21.312,-5.117 -12.973,1.613 -25.922,3.422 -38.364,7.625 -8.476,2.855 -17.226,4.976 -25.777,7.875 -4.18,1.418 -8.27,2.824 -12.398,4.406 -2.864,1.25 -5.7,2.457 -8.598,3.637 0.195,0.066 0.375,0.164 0.535,0.3 2.051,-0.046 4.051,-0.007 6.102,0.036 3.3,-0.637 6.554,-1.258 9.824,-2.075 2.082,-0.523 4.144,-1.086 6.242,-1.55 4.231,-0.914 8.516,-1.457 12.801,-2.059 8.597,-1.207 17.148,-2.859 25.847,-3.086 13.168,-0.348 25.711,0.332 38.797,1.344 8.465,0.66 16.891,2.277 25.196,3.988 12.418,2.563 24.558,7.285 36.687,10.973 3.602,1.086 7.551,2.07 10.91,3.761 1.407,0.719 1.125,3.149 -1.468,2.747 -9.985,-1.383 -18.633,-0.34 -28.457,1.312 -8.707,1.488 -17.317,2.719 -26.106,3.637 -22.941,2.34 -42.226,-1.418 -64.125,-7.254 -8.121,-2.152 -16.476,-3.902 -24.715,-5.563 -6.59,-1.328 -12.738,-2.64 -19.445,-2.785 -8.801,-0.179 -20.945,5.219 -29.531,8.442 -1.379,0.519 -2.77,1.062 -4.203,1.418 -1.891,1.543 -3.805,3.035 -5.727,4.535 -4.848,6.886 -8.594,8.73 -15.199,13.426 -4.824,4.972 -9.528,9.906 -14.074,15.128 1.687,-0.523 2.683,-0.75 4.226,-1.617 l -0.051,0.02 0.34,-0.184 -0.168,0.094 c 7.496,-4.371 19.582,-8.316 27.922,-10.484 l -0.133,0.035 c 9.785,-2.66 19.574,-5.606 29.563,-7.321 8.015,-1.324 17.402,-2.679 25.523,-3.101 4.227,-0.207 8.285,-0.235 12.52,-0.235 h -0.024 l 4.035,-0.015 -0.253,0.004 1.351,-0.004 h -0.016 l 5.911,-0.031 h -0.047 c 5.418,-0.036 10.765,-0.071 16.144,0.546 8.098,1.004 16.117,2.551 24.18,3.833 2.477,0.246 2.512,2.136 0.078,3.195 -3.59,1.633 -8.433,2.933 -12.148,4.062 -7.539,2.309 -15.016,5.012 -22.602,7.129 -11.523,3.235 -24.437,6.477 -36.437,7.551 -8.551,0.734 -15.926,-0.078 -24.551,-0.676 -8.996,-0.613 -18.078,-1.254 -27.09,-1.226 -8.68,0.199 -17.59,0.117 -25.895,2.941 -2.398,0.805 -5.652,1.516 -7.75,2.594 l -0.464,0.84 -16.602,0.281 c 3.578,-3.301 6.711,-5.457 12.43,-7.012 1.461,-1.297 3.519,-3.851 4.945,-5.39 3.07,-3.293 6.398,-6.297 9.633,-9.414 5.961,-5.75 11.445,-11.336 18.039,-16.364 l 2.801,-2.125 v 0.004 c 4.121,-3.148 8.168,-6.504 12.347,-9.535 2.317,-5.578 3.977,-8.598 8.379,-12.969 1.633,-3.219 3.246,-6.828 5.074,-9.91 l -0.097,0.168 c 4.812,-8.414 9.914,-16.738 15.711,-24.512 8.976,-11.972 20.789,-22.605 31.422,-33.222 6.547,-6.567 14.613,-12.418 21.82,-18.172 14.668,-11.738 22.527,-9.41 38.953,-13.578 0.902,-0.219 1.781,-0.039 2.113,0.941" /><path
         id="path20"
         style="fill:#4a95bc;fill-opacity:1;fill-rule:nonzero;stroke:none"
         d="m 454.668,41.9414 c 0.633,0 1.176,-0.2461 1.633,-0.7383 l 4.398,-4.8281 c -3.078,-3.6406 -6.816,-6.457 -11.242,-8.4492 -4.43,-1.9922 -9.762,-2.9922 -15.984,-2.9922 -5.465,0 -10.399,0.9453 -14.825,2.8359 -4.425,1.8907 -8.199,4.5274 -11.332,7.9258 -3.132,3.3906 -5.562,7.4531 -7.273,12.168 -1.719,4.7265 -2.574,9.918 -2.574,15.5937 0,5.6641 0.91,10.8594 2.707,15.586 1.804,4.7226 4.324,8.7773 7.582,12.1679 3.246,3.3985 7.148,6.0352 11.683,7.9258 4.528,1.8903 9.532,2.8323 15.028,2.8323 5.351,0 10.105,-0.871 14.273,-2.6174 4.16,-1.7539 7.785,-4.0821 10.86,-6.9844 L 455.93,87.168 c -0.242,-0.3789 -0.543,-0.6953 -0.91,-0.9375 -0.372,-0.2461 -0.856,-0.3711 -1.454,-0.3711 -0.664,0 -1.433,0.3398 -2.328,1 -0.89,0.664 -2.066,1.4179 -3.515,2.2422 -1.453,0.8164 -3.25,1.5547 -5.383,2.2226 -2.137,0.6563 -4.797,0.9922 -7.985,0.9922 -3.742,0 -7.171,-0.6484 -10.285,-1.9609 -3.109,-1.3086 -5.785,-3.1992 -8.043,-5.6641 -2.257,-2.4648 -4.004,-5.4922 -5.25,-9.0781 -1.242,-3.586 -1.867,-7.6406 -1.867,-12.1563 0,-4.582 0.645,-8.6601 1.938,-12.2343 1.293,-3.5625 3.086,-6.5899 5.351,-9.0704 2.274,-2.4882 4.949,-4.3789 8.035,-5.6757 3.079,-1.293 6.399,-1.9336 9.965,-1.9336 2.176,0 4.129,0.1406 5.864,0.3984 1.734,0.2656 3.32,0.6524 4.769,1.168 1.453,0.5273 2.82,1.2109 4.113,2.0312 1.293,0.8242 2.575,1.8086 3.836,2.961 0.274,0.2422 0.574,0.457 0.887,0.6132 0.316,0.1563 0.652,0.2266 1,0.2266 z m 57.617,29.3867 H 492.191 V 25.7773 h -10.289 v 45.5508 h -20.093 v 7.7696 h 50.476 z m 55.156,7.7696 -29.597,-68.8047 c -0.313,-0.76956 -0.739,-1.36331 -1.262,-1.78128 -0.519,-0.42188 -1.297,-0.62891 -2.309,-0.62891 h -7.605 l 9.754,21.24999 -21.875,49.9649 h 8.922 c 0.871,0 1.554,-0.2149 2.043,-0.6368 0.492,-0.414 0.836,-0.8867 1.051,-1.414 l 13.542,-32.0156 c 0.274,-0.7969 0.555,-1.6094 0.813,-2.4297 0.27,-0.8164 0.473,-1.6407 0.652,-2.4493 0.246,0.8399 0.504,1.6758 0.785,2.504 0.286,0.8242 0.583,1.621 0.899,2.4296 l 13.062,31.961 c 0.247,0.5898 0.625,1.082 1.153,1.4687 0.527,0.3867 1.125,0.5821 1.781,0.5821 z m 39.254,-45.8672 v 37.8281 h -15.953 c -0.347,-5.1758 -0.816,-9.793 -1.414,-13.8477 -0.598,-4.0586 -1.277,-7.6132 -2.062,-10.6718 -0.793,-3.0586 -1.664,-5.6836 -2.606,-7.8711 -0.949,-2.1914 -1.945,-4.0117 -3,-5.4375 z m 19.68,0.3125 V 10.7148 c 0,-0.98042 -0.262,-1.74605 -0.801,-2.31246 -0.547,-0.55859 -1.261,-0.83984 -2.133,-0.83984 h -6.359 V 25.7773 H 573.531 V 10.5078 c 0,-0.77342 -0.226,-1.45702 -0.679,-2.05077 C 572.395,7.86328 571.68,7.5625 570.699,7.5625 h -6.511 v 25.668 h 1.734 c 1.223,0 2.43,0.1875 3.625,0.5703 1.183,0.3867 2.336,1.1562 3.441,2.3086 1.102,1.164 2.137,2.7851 3.117,4.8828 0.977,2.1016 1.868,4.8476 2.676,8.2383 0.801,3.3984 1.5,7.539 2.094,12.4218 0.598,4.8829 1.07,10.6875 1.426,17.4454 h 34.312 V 33.543 Z m 19.887,45.5547 V 25.7773 h -10.235 v 53.3204 z m 1.941,16.4687 c 0,-0.9414 -0.195,-1.8359 -0.578,-2.6914 -0.383,-0.8555 -0.887,-1.6094 -1.539,-2.2539 -0.641,-0.6484 -1.414,-1.1563 -2.293,-1.5195 -0.867,-0.3711 -1.777,-0.5664 -2.73,-0.5664 -0.938,0 -1.836,0.1953 -2.676,0.5664 -0.836,0.3632 -1.571,0.8711 -2.219,1.5195 -0.641,0.6445 -1.152,1.3984 -1.52,2.2539 -0.375,0.8555 -0.558,1.75 -0.558,2.6914 0,0.9844 0.183,1.9063 0.558,2.7734 0.368,0.8516 0.879,1.6055 1.52,2.2502 0.648,0.652 1.383,1.152 2.219,1.519 0.84,0.371 1.738,0.543 2.676,0.543 0.953,0 1.863,-0.172 2.73,-0.543 0.879,-0.367 1.652,-0.867 2.293,-1.519 0.652,-0.6447 1.156,-1.3986 1.539,-2.2502 0.383,-0.8671 0.578,-1.789 0.578,-2.7734 z M 689.09,54.4805 v 17.789 h -8.453 c -1.922,0 -3.532,-0.2578 -4.824,-0.8007 -1.297,-0.5508 -2.333,-1.2657 -3.118,-2.1329 -0.785,-0.8789 -1.347,-1.8398 -1.675,-2.8906 -0.332,-1.0469 -0.512,-2.1015 -0.512,-3.1445 0,-2.7695 0.996,-4.918 2.988,-6.4727 2,-1.5625 4.707,-2.3476 8.137,-2.3476 z m 9.762,24.6172 V 25.7773 h -9.762 v 22.1993 h -3.625 c -1.012,0 -1.852,-0.0703 -2.524,-0.2266 -0.664,-0.1602 -1.222,-0.4023 -1.691,-0.7227 -0.473,-0.3164 -0.895,-0.6992 -1.242,-1.1562 -0.352,-0.4531 -0.695,-0.957 -1.051,-1.5195 L 668.098,29.3477 c -0.356,-0.5977 -0.723,-1.1055 -1.11,-1.5391 -0.383,-0.4375 -0.82,-0.8086 -1.308,-1.1094 -0.489,-0.2969 -1.067,-0.5234 -1.735,-0.6797 -0.656,-0.1562 -1.449,-0.2422 -2.359,-0.2422 h -7.078 l 14.953,19.7813 c 1.289,2.2031 3.062,3.6953 5.297,4.4648 -2.656,0.3438 -4.895,0.9961 -6.731,1.9219 -1.836,0.9258 -3.343,2.0078 -4.496,3.25 -1.152,1.2461 -1.996,2.6133 -2.519,4.0977 -0.528,1.4883 -0.785,2.9883 -0.785,4.5234 0,1.8906 0.359,3.7461 1.101,5.5664 0.735,1.8203 1.902,3.4453 3.512,4.8789 1.609,1.4375 3.687,2.6055 6.246,3.5 2.551,0.8946 5.637,1.336 9.238,1.336 z m 77.293,-45.8672 v 37.8281 h -15.954 c -0.347,-5.1758 -0.816,-9.793 -1.414,-13.8477 -0.597,-4.0586 -1.277,-7.6132 -2.062,-10.6718 -0.793,-3.0586 -1.664,-5.6836 -2.606,-7.8711 -0.949,-2.1914 -1.945,-4.0117 -3,-5.4375 z m 19.679,0.3125 V 10.7148 c 0,-0.98042 -0.261,-1.74605 -0.801,-2.31246 -0.546,-0.55859 -1.261,-0.83984 -2.136,-0.83984 h -6.356 V 25.7773 H 742.98 V 10.5078 c 0,-0.77342 -0.226,-1.45702 -0.683,-2.05077 -0.453,-0.59375 -1.168,-0.89453 -2.149,-0.89453 h -6.511 v 25.668 h 1.734 c 1.223,0 2.43,0.1875 3.625,0.5703 1.184,0.3867 2.34,1.1562 3.445,2.3086 1.098,1.164 2.133,2.7851 3.114,4.8828 0.976,2.1016 1.867,4.8476 2.675,8.2383 0.801,3.3984 1.5,7.539 2.094,12.4218 0.598,4.8829 1.071,10.6875 1.422,17.4454 h 34.317 V 33.543 Z m 43.614,24.8203 c 0,2.0351 -0.282,3.9023 -0.856,5.6172 -0.582,1.7148 -1.437,3.1953 -2.555,4.4609 -1.117,1.2539 -2.48,2.2383 -4.093,2.9336 -1.614,0.707 -3.465,1.0508 -5.559,1.0508 -4.309,0 -7.687,-1.2422 -10.148,-3.7266 -2.473,-2.4804 -4.039,-5.9258 -4.711,-10.3359 z m 8.449,-24.9766 c -1.262,-1.4765 -2.715,-2.7304 -4.352,-3.7969 -1.652,-1.0703 -3.398,-1.9375 -5.25,-2.6054 -1.859,-0.6641 -3.769,-1.1524 -5.738,-1.4688 -1.977,-0.3203 -3.938,-0.4765 -5.863,-0.4765 -3.668,0 -7.067,0.6367 -10.2,1.875 -3.129,1.2382 -5.836,3.0625 -8.129,5.4531 -2.292,2.4023 -4.082,5.375 -5.351,8.9219 -1.281,3.5547 -1.93,7.6289 -1.93,12.25 0,3.7031 0.582,7.1718 1.731,10.3711 1.156,3.2031 2.82,5.9843 4.972,8.3593 2.149,2.375 4.778,4.2539 7.883,5.6211 3.117,1.3633 6.617,2.0469 10.5,2.0469 3.258,0 6.262,-0.5273 9.008,-1.5937 2.75,-1.0665 5.109,-2.629 7.102,-4.6524 1.992,-2.0312 3.574,-4.5351 4.71,-7.5117 1.137,-2.9727 1.692,-6.3633 1.692,-10.1758 0,-1.5781 -0.172,-2.625 -0.524,-3.1641 -0.351,-0.5468 -0.996,-0.8242 -1.937,-0.8242 h -34.953 c 0.105,-3.1836 0.558,-5.9492 1.367,-8.3086 0.801,-2.3632 1.922,-4.3398 3.336,-5.9179 1.418,-1.5703 3.098,-2.7461 5.062,-3.5157 1.954,-0.7695 4.141,-1.1523 6.559,-1.1523 2.266,0 4.246,0.2656 5.906,0.793 1.664,0.5156 3.102,1.0976 4.301,1.7109 1.211,0.6133 2.223,1.168 3.047,1.6953 0.82,0.5235 1.535,0.7891 2.172,0.7891 0.84,0 1.484,-0.3203 1.937,-0.9492 z m 44.023,42.9219 c 0.528,0.8086 1.227,1.4687 2.106,1.9961 0.867,0.5273 1.797,0.793 2.777,0.793 h 8.027 L 891.34,58.9453 c -0.84,-1.3359 -1.719,-2.418 -2.629,-3.2578 -0.91,-0.8398 -2.027,-1.4922 -3.359,-1.9453 1.679,-0.4844 3.097,-1.1992 4.25,-2.1641 1.156,-0.9687 2.191,-2.2226 3.101,-3.7578 l 13.59,-22.043 h -7.082 c -1.856,0 -3.273,0.3125 -4.27,0.9219 -1,0.6133 -1.855,1.4922 -2.55,2.6485 l -9.762,16.1093 c -0.809,1.3243 -1.805,2.3243 -3.016,2.9883 -1.207,0.668 -2.605,1 -4.179,1 h -5.512 V 25.7188 h -10.231 v 53.3789 h 10.231 V 56.3164 h 4.836 c 1.465,0 2.722,0.2969 3.758,0.8945 1.027,0.5977 1.906,1.4688 2.636,2.6211 z m 43.457,3.6289 c 3.914,0 7.473,-0.6367 10.633,-1.9102 3.172,-1.2773 5.863,-3.1132 8.082,-5.5156 2.223,-2.3906 3.914,-5.2812 5.109,-8.6523 1.192,-3.375 1.782,-7.1719 1.782,-11.3711 0,-4.1992 -0.59,-7.9961 -1.782,-11.3867 -1.195,-3.3985 -2.886,-6.2852 -5.109,-8.6641 -2.219,-2.3789 -4.91,-4.1953 -8.082,-5.4687 -3.16,-1.2813 -6.719,-1.9297 -10.633,-1.9297 -3.953,0 -7.5,0.6484 -10.672,1.9297 -3.164,1.2734 -5.875,3.0898 -8.113,5.4687 -2.242,2.3789 -3.957,5.2656 -5.164,8.6641 -1.207,3.3906 -1.82,7.1875 -1.82,11.3867 0,4.1992 0.613,7.9961 1.82,11.3711 1.207,3.3711 2.922,6.2617 5.164,8.6523 2.238,2.4024 4.949,4.2383 8.113,5.5156 3.172,1.2735 6.719,1.9102 10.672,1.9102 z m 0,-46.918 c 5.039,0 8.797,1.6953 11.285,5.0899 2.477,3.3906 3.727,8.1719 3.727,14.3203 0,6.1601 -1.25,10.957 -3.727,14.3633 -2.488,3.4101 -6.246,5.1054 -11.285,5.1054 -5.105,0 -8.906,-1.6953 -11.406,-5.1054 -2.5,-3.4063 -3.762,-8.2032 -3.762,-14.3633 0,-6.1484 1.262,-10.9297 3.762,-14.3203 2.5,-3.3946 6.301,-5.0899 11.406,-5.0899 z m 47.223,5.875 c 1.683,-2.2031 3.5,-3.7422 5.445,-4.6211 1.942,-0.8711 4.106,-1.3125 6.524,-1.3125 4.683,0 8.321,1.6954 10.901,5.0782 2.56,3.375 3.84,8.289 3.84,14.7617 0,3.3984 -0.27,6.3008 -0.85,8.6953 -0.58,2.3945 -1.42,4.3555 -2.52,5.875 -1.1,1.5234 -2.47,2.6445 -4.07,3.3594 -1.62,0.7148 -3.43,1.0664 -5.465,1.0664 -2.977,0 -5.551,-0.6641 -7.731,-1.9922 -2.191,-1.332 -4.215,-3.2188 -6.074,-5.6641 z m -0.524,32.2227 c 1.122,1.3242 2.332,2.5469 3.61,3.6562 1.273,1.0977 2.637,2.0469 4.105,2.8321 1.473,0.7851 3.043,1.3984 4.707,1.8359 1.664,0.4414 3.43,0.6484 5.321,0.6484 3.041,0 5.801,-0.5937 8.271,-1.7851 2.46,-1.1875 4.57,-2.9375 6.31,-5.25 1.75,-2.3086 3.12,-5.1563 4.08,-8.5547 0.96,-3.3906 1.43,-7.2891 1.43,-11.6992 0,-3.957 -0.52,-7.6133 -1.59,-10.9844 -1.06,-3.375 -2.59,-6.3203 -4.57,-8.7969 -1.97,-2.4882 -4.38,-4.4257 -7.23,-5.8476 -2.86,-1.4102 -6.08,-2.1328 -9.643,-2.1328 -3.179,0 -5.91,0.5234 -8.187,1.5781 -2.274,1.0508 -4.301,2.5156 -6.09,4.4101 V 7.88281 H 972.359 V 79.0977 h 6.145 c 1.43,0 2.32,-0.6836 2.676,-2.0508 z m 94.414,7.9805 -29.6,-68.8047 c -0.31,-0.76956 -0.74,-1.36331 -1.26,-1.78128 -0.52,-0.42188 -1.3,-0.62891 -2.31,-0.62891 h -7.6 l 9.75,21.24999 -21.87,49.9649 h 8.92 c 0.87,0 1.55,-0.2149 2.04,-0.6368 0.49,-0.414 0.84,-0.8867 1.05,-1.414 l 13.54,-32.0156 c 0.28,-0.7969 0.56,-1.6094 0.82,-2.4297 0.27,-0.8164 0.47,-1.6407 0.65,-2.4493 0.24,0.8399 0.5,1.6758 0.78,2.504 0.29,0.8242 0.58,1.621 0.9,2.4296 l 13.07,31.961 c 0.24,0.5898 0.62,1.082 1.15,1.4687 0.52,0.3867 1.12,0.5821 1.78,0.5821 h 8.19" /><path
         id="path22"
         style="fill:#4c4240;fill-opacity:1;fill-rule:nonzero;stroke:none"
         d="m 44,300.918 c -16.0234,0 -37.04687,-9.645 -37.04687,-36.059 0,-44.234 72.19527,-44.648 72.19527,-87.203 0,-15.304 -13.2695,-27.879 -29.1211,-27.879 -19.6406,0 -35.4921,16.141 -44.45308,52.196 H 4.89063 l 2.41015,-51.145 h 0.6836 c 0.35156,2.934 0.86718,9.645 4.66012,9.645 5.3321,0 19.1211,-12.996 37.3828,-12.996 23.0938,0 46.004,12.57 46.004,39.82 0,46.961 -76.3282,53.668 -76.3282,85.945 0,17.192 12.7539,25.571 24.2969,25.571 21.1953,0 40.4883,-20.122 44.2813,-45.481 h 0.6835 l -1.0273,40.453 H 87.2461 C 86.5547,290.434 85.1836,285.82 80.6992,288.34 75.875,291.059 59.5039,300.918 44,300.918 Z M 208.352,180.59 c -5,-9.434 -14.817,-27.668 -31.704,-27.668 h -38.085 v 68.969 h 20.167 c 7.754,0 13.27,-5.668 13.782,-12.164 h 0.687 v 26.414 h -0.687 c -0.512,-6.5 -6.028,-12.157 -13.782,-12.157 h -20.167 v 71.477 h 34.292 c 16.887,0 25.504,-14.883 30.497,-24.316 h 0.691 l -8.965,26.414 h -83.726 v -0.84 c 5.336,-0.629 9.988,-7.336 9.988,-16.77 V 168.438 c 0,-9.434 -4.652,-16.145 -9.988,-16.77 v -0.84 h 87.523 l 10.164,29.762 h -0.687 z m 65.105,27.672 c 21.195,-0.207 8.613,-60.785 41.18,-60.785 5.691,0 12.75,2.093 15.508,5.445 v 0.84 c -26.36,-5.242 -15.68,48 -45.829,56.593 24.286,6.918 31.184,24.317 31.184,42.137 0,22.852 -11.371,45.067 -56.168,45.067 h -37.219 v -0.84 c 5.344,-0.629 9.989,-7.336 9.989,-16.77 V 168.438 c 0,-9.434 -4.645,-16.145 -9.989,-16.77 v -0.84 h 37.219 v 0.84 c -5.344,0.625 -10,7.336 -10,16.77 v 38.988 h 10 c 5.16,0 9.816,0.207 14.125,0.836 z m -14.816,1.261 h -9.309 v 85.938 h 9.309 c 35.144,0 38.765,-28.09 38.765,-42.969 0,-14.887 -3.621,-42.969 -38.765,-42.969 z m 137.48,-62.046 c 9.125,0 16.531,2.933 22.742,6.91 3.782,2.519 10.676,9.019 14.469,8.179 3.445,-0.839 6.371,-7.753 8.617,-11.738 h 0.864 v 48.836 c 0,9.434 4.468,16.145 9.816,16.77 v 0.839 h -36.875 v -0.839 c 5.344,-0.625 9.824,-7.336 9.824,-16.77 v -35.422 c -5.859,-5.027 -13.262,-9.012 -22.75,-9.012 -19.457,0 -46.859,21.168 -46.859,77.344 0,28.098 12.406,66.239 40.152,66.239 20.84,0 35.141,-17.395 42.899,-53.446 h 0.683 l -2.238,52.192 h -0.688 c -0.863,-4.817 -2.238,-7.754 -5.515,-7.125 -5.34,1.043 -18.61,10.484 -35.141,10.484 -30.328,0 -58.242,-34.379 -58.242,-76.934 0,-42.132 23.949,-76.507 58.242,-76.507 z m 69.063,4.191 v -0.84 h 37.218 v 0.84 c -5.343,0.625 -10,7.336 -10,16.77 v 111.511 c 0,9.434 4.657,16.141 10,16.77 v 0.84 h -37.218 v -0.84 c 5.343,-0.629 9.988,-7.336 9.988,-16.77 V 168.438 c 0,-9.434 -4.645,-16.145 -9.988,-16.77 z m 53.218,0 v -0.84 h 37.219 v 0.84 c -5.344,0.625 -10,7.336 -10,16.77 v 111.511 c 0,9.434 4.656,16.141 10,16.77 v 0.84 h -37.219 v -0.84 c 5.34,-0.629 9.996,-7.336 9.996,-16.77 V 168.438 c 0,-9.434 -4.656,-16.145 -9.996,-16.77 z m 81.993,128.281 c -3.102,8.391 -1.891,16.141 3.097,16.77 v 0.84 h -36.351 v -0.84 c 4.996,-0.629 11.543,-8.379 14.648,-16.77 l 48.238,-129.121 h 1.727 l 43.242,129.121 c 2.926,8.594 8.961,16.141 13.961,16.77 v 0.84 h -19.644 v -0.84 c 5.167,-0.629 6.894,-8.176 3.964,-16.77 L 638.82,176.816 600.395,279.949 Z M 692.73,168.438 c -3.105,-10.063 -9.996,-16.145 -15.167,-16.77 v -0.84 h 21.367 v 0.84 c -5,0.625 -7.063,8.379 -4.481,16.77 l 9.824,32.066 h 45.829 l 10.515,-32.281 c 3.442,-10.477 0.516,-15.93 -4.137,-16.555 v -0.84 h 37.739 v 0.84 c -4.828,0.625 -11.551,4.816 -15.508,16.77 l -42.047,129.121 h -4.305 L 692.73,168.438 Z m 12.227,34.164 21.551,70.437 22.902,-70.437 z M 876.871,150.828 H 911.5 c 49.625,0 74.262,31.024 74.262,73.367 0,42.344 -24.637,73.364 -74.262,73.364 h -34.629 v -0.84 c 5.344,-0.629 9.988,-7.336 9.988,-16.77 V 168.438 c 0,-9.434 -4.644,-16.145 -9.988,-16.77 z m 90.797,73.367 c 0,-34.8 -14.641,-71.273 -56.168,-71.273 h -7.41 v 142.539 h 7.41 c 41.527,0 56.168,-36.473 56.168,-71.266 z M 1098.25,180.59 c -5,-9.434 -14.81,-27.668 -31.7,-27.668 h -38.08 v 68.969 h 20.16 c 7.75,0 13.26,-5.668 13.78,-12.164 h 0.69 v 26.414 h -0.69 c -0.52,-6.5 -6.03,-12.157 -13.78,-12.157 h -20.16 v 71.477 h 34.29 c 16.88,0 25.5,-14.883 30.49,-24.316 h 0.69 l -8.96,26.414 h -83.73 v -0.84 c 5.34,-0.629 9.99,-7.336 9.99,-16.77 V 168.438 c 0,-9.434 -4.65,-16.145 -9.99,-16.77 v -0.84 h 87.52 l 10.17,29.762 h -0.69 z m 31.68,51.984 c 0,28.098 12.41,66.239 40.14,66.239 20.85,0 35.15,-17.395 42.9,-53.446 h 0.69 l -2.23,52.192 h -0.69 c -0.86,-4.817 -2.24,-7.754 -5.52,-7.125 -5.33,1.043 -18.6,10.484 -35.15,10.484 -30.32,0 -58.23,-34.379 -58.23,-76.934 0,-42.132 23.95,-76.507 58.23,-76.507 33.08,0 45.5,36.472 46.52,39.82 h -1.71 c -1.22,-3.977 -14.31,-30.602 -38.09,-30.602 -19.47,0 -46.86,19.703 -46.86,75.879 z m 158.66,-85.097 c 29.46,0 53.41,34.375 53.41,76.507 0,42.555 -23.95,76.934 -53.41,76.934 -30.15,0 -54.1,-34.379 -54.1,-76.934 0,-42.132 23.95,-76.507 54.1,-76.507 z m -36.01,76.507 c 0,41.293 15.86,74.829 35.83,74.829 19.66,0 35.5,-33.536 35.5,-74.829 0,-40.875 -15.84,-74.414 -35.5,-74.414 -19.97,0 -35.83,33.539 -35.83,74.414 z m 156.43,-15.722 c 21.19,-0.207 8.62,-60.785 41.17,-60.785 5.69,0 12.76,2.093 15.52,5.445 v 0.84 c -26.36,-5.242 -15.68,48 -45.84,56.593 24.3,6.918 31.19,24.317 31.19,42.137 0,22.852 -11.37,45.067 -56.17,45.067 h -37.22 v -0.84 c 5.34,-0.629 10,-7.336 10,-16.77 V 168.438 c 0,-9.434 -4.66,-16.145 -10,-16.77 v -0.84 h 37.22 v 0.84 c -5.35,0.625 -9.99,7.336 -9.99,16.77 v 38.988 h 9.99 c 5.17,0 9.82,0.207 14.13,0.836 z m -14.81,1.261 h -9.31 v 85.938 h 9.31 c 35.14,0 38.76,-28.09 38.76,-42.969 0,-14.887 -3.62,-42.969 -38.76,-42.969 v 0" /></g></g></svg>